<svg width="25" height="20" viewBox="0 0 25 20" fill="none" xmlns="http://www.w3.org/2000/svg">
<path d="M23.3192 1.26656C23.3192 1.26656 21.2953 2.40665 20.1693 2.72665C19.5653 2.06665 18.7622 1.59655 17.8692 1.37655C16.9762 1.16655 16.0362 1.21658 15.1762 1.53658C14.3162 1.84658 13.5772 2.40656 13.0602 3.13656C12.5432 3.86656 12.2722 4.72653 12.2842 5.60653V6.56661C10.5222 6.61661 8.77524 6.23653 7.20024 5.48653C5.62424 4.72653 4.27024 3.60665 3.25624 2.22665C3.25624 2.22665 -0.755753 10.8566 8.27225 14.6966C6.20625 16.0466 3.74524 16.7165 1.25024 16.6165C10.2782 21.4165 21.3132 16.6166 21.3132 5.58663C21.3122 5.31663 21.2852 5.04658 21.2322 4.78658C22.2562 3.81658 23.3192 1.26656 23.3192 1.26656Z" stroke="white" stroke-width="2.5" stroke-linecap="round" stroke-linejoin="round"/>
</svg>
